<svg xmlns="http://www.w3.org/2000/svg" viewBox="-4 -4 98 98">
    <defs>
        <style>
            .st0 { fill: #45797b; }
            .st1 { fill: #f1af9e; }
        </style>
    </defs>
    <path class="st0" d="M67.89,88.36c-6.13,0-10.96-2.71-14.48-8.12l-29.63-45.73v32.06c0,12.03-9.75,21.78-21.78,21.78h0V18.14c0-4.69,1.67-8.7,5.01-12.04,3.34-3.34,7.35-5.01,12.04-5.01,6.13,0,10.91,2.71,14.34,8.12l29.63,45.73v-11.19c0-9.82,7.96-17.78,17.78-17.78h4.14v45.34c0,4.69-1.67,8.7-5.01,12.04-3.34,3.34-7.35,5.01-12.04,5.01Z"/>
    <circle class="st1" cx="74.1" cy="12.48" r="11.78"/>
</svg>
