<svg xmlns="http://www.w3.org/2000/svg" id="Layer_1" version="1.1" viewBox="0 0 500 90">
    <!-- Generator: Adobe Illustrator 30.0.0, SVG Export Plug-In . SVG Version: 2.1.1 Build 123)  -->
    <defs>
        <style>
            .st0 {
                fill: #45797b;
            }

            .st1 {
                fill: #f1af9e;
            }
        </style>
    </defs>
    <path class="st0"
        d="M132.07,28.12c.27-.27.61-.41,1-.41h13.8c.39,0,.73.14,1,.41.27.28.41.61.41,1v57.81c0,.39-.14.73-.41,1-.28.28-.61.41-1,.41h-13.8c-.39,0-.73-.14-1-.41-.28-.27-.41-.61-.41-1v-4.01c0-.24-.08-.37-.24-.41-.16-.04-.32.06-.47.29-3.15,4.25-8.02,6.37-14.63,6.37-5.98,0-10.9-1.81-14.75-5.43-3.85-3.62-5.78-8.69-5.78-15.22V29.13c0-.39.14-.73.41-1,.27-.27.61-.41,1-.41h13.69c.39,0,.73.14,1,.41.27.28.41.61.41,1v35.28c0,3.15.84,5.7,2.54,7.67,1.69,1.97,4.03,2.95,7.02,2.95,2.67,0,4.88-.81,6.61-2.42,1.73-1.61,2.79-3.72,3.19-6.31V29.13c0-.39.14-.73.41-1ZM192.01,40.63c-.28.28-.61.41-1,.41h-11.33c-.39,0-.59.2-.59.59v25.01c0,2.6.53,4.52,1.59,5.78,1.06,1.26,2.77,1.89,5.13,1.89h3.89c.39,0,.73.14,1,.41.27.28.41.61.41,1v11.21c0,.87-.47,1.38-1.42,1.53-3.3.16-5.66.24-7.08.24-6.53,0-11.41-1.08-14.63-3.24-3.23-2.16-4.88-6.23-4.96-12.21v-31.62c0-.39-.2-.59-.59-.59h-6.73c-.39,0-.73-.14-1-.41-.28-.27-.41-.61-.41-1v-10.5c0-.39.14-.73.41-1,.27-.27.61-.41,1-.41h6.73c.39,0,.59-.2.59-.59v-14.04c0-.39.14-.73.41-1,.27-.27.61-.41,1-.41h13.21c.39,0,.73.14,1,.41.27.28.41.61.41,1v14.04c0,.39.2.59.59.59h11.33c.39,0,.73.14,1,.41.27.28.41.61.41,1v10.5c0,.39-.14.73-.41,1ZM236.43,28.54c.63.31.86.91.71,1.77l-2.48,13.45c-.08.94-.63,1.22-1.65.83-1.18-.39-2.56-.59-4.13-.59-.63,0-1.5.08-2.6.24-2.83.24-5.23,1.28-7.2,3.13-1.97,1.85-2.95,4.31-2.95,7.37v32.21c0,.39-.14.73-.41,1-.28.28-.61.41-1,.41h-13.8c-.39,0-.73-.14-1-.41-.28-.27-.41-.61-.41-1V29.13c0-.39.14-.73.41-1s.61-.41,1-.41h13.8c.39,0,.73.14,1,.41.27.28.41.61.41,1v4.48c0,.24.08.39.24.47.16.08.27.04.35-.12,3.22-4.72,7.55-7.08,12.98-7.08,2.83,0,5.07.55,6.73,1.65ZM279.61,29.42c4.01,1.77,7.14,4.19,9.38,7.26,2.24,3.07,3.36,6.49,3.36,10.26v40c0,.39-.14.73-.41,1-.28.28-.61.41-1,.41h-13.8c-.39,0-.73-.14-1-.41-.28-.27-.41-.61-.41-1v-3.89c0-.24-.08-.39-.24-.47-.16-.08-.31,0-.47.24-3.3,4.33-8.61,6.49-15.93,6.49-6.14,0-11.09-1.49-14.87-4.48-3.78-2.99-5.66-7.39-5.66-13.21s2.12-10.76,6.37-14.1c4.25-3.34,10.3-5.01,18.17-5.01h12.03c.39,0,.59-.2.59-.59v-2.6c0-2.6-.79-4.62-2.36-6.08-1.57-1.45-3.93-2.18-7.08-2.18-2.44,0-4.47.43-6.08,1.3-1.61.87-2.65,2.09-3.13,3.66-.24.87-.75,1.26-1.53,1.18l-14.28-1.89c-.94-.16-1.38-.51-1.3-1.06.31-3.3,1.63-6.29,3.95-8.97,2.32-2.67,5.39-4.76,9.2-6.25,3.81-1.49,8.08-2.24,12.8-2.24,5.11,0,9.67.89,13.69,2.65ZM272.18,74.2c2.36-1.81,3.54-4.13,3.54-6.96v-4.25c0-.39-.2-.59-.59-.59h-8.5c-3.54,0-6.31.67-8.32,2.01-2.01,1.34-3.01,3.23-3.01,5.66,0,2.12.75,3.8,2.24,5.01,1.49,1.22,3.5,1.83,6.02,1.83,3.38,0,6.25-.9,8.61-2.71ZM356.54,87.41l-4.72-14.87c-.08-.24-.24-.35-.47-.35h-35.28c-.24,0-.39.12-.47.35l-4.72,14.87c-.24.63-.71.94-1.42.94h-6.37c-.87,0-1.18-.43-.94-1.3l26.08-80.35c.24-.63.71-.94,1.42-.94h8.02c.71,0,1.18.32,1.42.94l26.19,80.35.12.47c0,.55-.35.83-1.06.83h-6.37c-.71,0-1.18-.31-1.42-.94ZM318.01,65.17c.12.12.25.18.41.18h30.44c.16,0,.29-.06.41-.18.12-.12.14-.25.06-.41l-15.34-48.14c-.08-.16-.2-.24-.35-.24s-.28.08-.35.24l-15.34,48.14c-.08.16-.06.29.06.41ZM369.93,87.88c-.2-.31-.14-.63.18-.94l19.7-28.08c.16-.24.16-.47,0-.71l-19.7-28.08c-.16-.16-.24-.35-.24-.59,0-.55.35-.83,1.06-.83h6.37c.63,0,1.1.24,1.42.71l15.46,22.3c.08.08.2.12.35.12s.27-.04.35-.12l15.34-22.3c.31-.47.79-.71,1.42-.71h6.96c.47,0,.79.14.94.41.16.28.08.61-.24,1l-19.7,28.08c-.08.24-.08.47,0,.71l19.7,28.08c.16.16.24.39.24.71,0,.16-.08.32-.24.47s-.39.24-.71.24h-6.49c-.63,0-1.1-.24-1.42-.71l-15.34-22.3c-.08-.16-.2-.24-.35-.24s-.28.08-.35.24l-15.57,22.3c-.31.47-.79.71-1.42.71h-6.73c-.47,0-.81-.16-1-.47ZM430.28,15.91c-1.26-1.26-1.89-2.83-1.89-4.72s.63-3.56,1.89-4.78c1.26-1.22,2.83-1.83,4.72-1.83s3.46.61,4.72,1.83c1.26,1.22,1.89,2.81,1.89,4.78s-.63,3.46-1.89,4.72c-1.26,1.26-2.83,1.89-4.72,1.89s-3.46-.63-4.72-1.89ZM430.51,87.06V29.72c0-.79.39-1.18,1.18-1.18h6.02c.79,0,1.18.39,1.18,1.18v57.34c0,.79-.39,1.18-1.18,1.18h-6.02c-.79,0-1.18-.39-1.18-1.18ZM464.31,86.82c-3.42-1.42-6.06-3.3-7.9-5.66-1.85-2.36-2.77-4.99-2.77-7.9v-1.42c0-.79.39-1.18,1.18-1.18h5.66c.79,0,1.18.39,1.18,1.18v.94c0,2.6,1.36,4.86,4.07,6.78,2.71,1.93,6.12,2.89,10.21,2.89s7.39-.92,9.91-2.77c2.52-1.85,3.78-4.19,3.78-7.02,0-1.96-.65-3.58-1.95-4.84-1.3-1.26-2.83-2.24-4.6-2.95-1.77-.71-4.5-1.61-8.2-2.71-4.41-1.26-8.02-2.52-10.85-3.78-2.83-1.26-5.21-3.01-7.14-5.25-1.93-2.24-2.89-5.09-2.89-8.55,0-5.03,1.97-9.04,5.9-12.03,3.93-2.99,9.12-4.48,15.57-4.48,4.32,0,8.16.71,11.5,2.12,3.34,1.42,5.92,3.36,7.73,5.84,1.81,2.48,2.71,5.25,2.71,8.32v.35c0,.79-.39,1.18-1.18,1.18h-5.55c-.79,0-1.18-.39-1.18-1.18v-.35c0-2.67-1.28-4.91-3.83-6.73-2.56-1.81-6-2.71-10.32-2.71-4.01,0-7.24.81-9.67,2.42-2.44,1.61-3.66,3.83-3.66,6.67,0,2.68,1.18,4.72,3.54,6.14s6.02,2.83,10.97,4.25c4.56,1.34,8.26,2.6,11.09,3.78,2.83,1.18,5.27,2.89,7.32,5.13,2.04,2.24,3.07,5.17,3.07,8.79,0,5.11-2.01,9.2-6.02,12.27s-9.32,4.6-15.93,4.6c-4.41,0-8.32-.71-11.74-2.12ZM67.89,88.36c-6.13,0-10.96-2.71-14.48-8.12l-29.63-45.73v32.06c0,12.03-9.75,21.78-21.78,21.78h0V18.14c0-4.69,1.67-8.7,5.01-12.04,3.34-3.34,7.35-5.01,12.04-5.01,6.13,0,10.91,2.71,14.34,8.12l29.63,45.73v-11.19c0-9.82,7.96-17.78,17.78-17.78h4.14v45.34c0,4.69-1.67,8.7-5.01,12.04-3.34,3.34-7.35,5.01-12.04,5.01Z" />
    <circle class="st1" cx="74.1" cy="12.48" r="11.78" />
</svg>